<?xml version="1.0" standalone="no"?>
<!DOCTYPE svg PUBLIC "-//W3C//DTD SVG 1.1//EN" "http://www.w3.org/Graphics/SVG/1.1/DTD/svg11.dtd" >
<svg xmlns="http://www.w3.org/2000/svg">
<metadata>
<json>
<![CDATA[
{
	"fontFamily": "icomoon",
	"description": "Font generated by IcoMoon.",
	"majorVersion": 0,
	"version": "Version 1.0",
	"fontId": "icomoon",
	"psName": "icomoon",
	"subFamily": "Regular",
	"fullName": "icomoon"
}
]]>
</json>
</metadata>
<defs>
<font id="icomoon" horiz-adv-x="1024">
<font-face units-per-em="1024" ascent="960" descent="-64" />
<missing-glyph horiz-adv-x="1024" />
<glyph unicode="&#x20;" horiz-adv-x="512" d="" />
<glyph unicode="&#xe900;" glyph-name="add_a_comment" data-tags="add_a_comment" d="M0 602.020c0 62.556 23.941 147.558 71.803 254.986 1.116 2.632 3.103 7.148 5.939 13.558 2.816 6.41 5.376 12.063 7.619 16.968 2.284 4.895 4.721 9.032 7.363 12.421 4.536 6.41 9.8 9.605 15.841 9.605 5.642 0 10.076-1.884 13.281-5.642 3.205-3.789 4.803-8.479 4.803-14.141 0-3.389-0.481-8.376-1.423-14.981s-1.423-11.018-1.423-13.281c-1.864-25.631-2.796-48.835-2.796-69.55 0-38.052 3.277-72.192 9.882-102.328 6.605-30.147 15.739-56.248 27.423-78.305 11.704-22.036 26.757-41.083 45.22-57.078 18.483-16.026 38.359-29.123 59.658-39.311 21.299-10.168 46.356-18.176 75.203-24.033 28.815-5.816 57.836-9.882 87.060-12.155 29.204-2.263 62.28-3.389 99.205-3.389h126.628v144.742c0 9.789 3.584 18.268 10.752 25.436 7.158 7.148 15.636 10.732 25.436 10.732s18.278-3.584 25.436-10.732l289.464-289.741c7.168-7.158 10.752-15.636 10.752-25.436s-3.584-18.278-10.752-25.436l-289.464-289.464c-7.158-7.158-15.636-10.742-25.436-10.742s-18.278 3.584-25.436 10.742c-7.168 7.168-10.752 15.647-10.752 25.446v144.732h-126.628c-268.728 0-433.613 75.94-494.694 227.84-19.978 50.77-29.962 113.521-29.962 188.539z" />
<glyph unicode="&#xe901;" glyph-name="arrow" data-tags="arrow" horiz-adv-x="1023" d="M955.616 516.676h-725.918l329.352 329.059c12.14 12.16 19.647 28.947 19.647 47.489s-7.507 35.329-19.648 47.489l0.001-0.001c-12.341 11.735-29.072 18.954-47.489 18.954s-35.148-7.219-47.518-18.981l0.029 0.027-444.201-443.909c-12.227-12.174-19.794-29.021-19.794-47.635s7.566-35.461 19.791-47.632l444.203-444.203c12.321-13.197 29.821-21.423 49.242-21.423 37.171 0 67.304 30.133 67.304 67.304 0 17.75-6.871 33.895-18.098 45.92l0.036-0.039-3.507 4.384-329.352 328.475h725.918c37.202 0 67.361 30.158 67.361 67.361s-30.158 67.361-67.361 67.361v0z" />
<glyph unicode="&#xe902;" glyph-name="brandbubble" data-tags="brandbubble" d="M982.070 618.523c-37.619 107.035-105.095 195.746-190.033 249.856-70.592 44.215-156.371 70.438-248.274 70.438-6.622 0-13.212-0.136-19.767-0.406l0.939 0.031c-107.789-2.371-220.645-34.816-336.734-97.011v0c-100.136-53.248-150.043-172.463-174.296-262.252-23.175-86.232-14.767-158.451 6.252-246.838 16.923-71.249 54.865-171.385 139.372-244.359 64.674-55.512 152.63-92.268 269.474-112.317 53.939-9.928 116.235-15.831 179.829-16.274l0.395-0.002c125.036 0 261.389 27.055 339.106 126.653 99.166 126.76 91.298 368.856 33.738 532.48z" />
<glyph unicode="&#xe903;" glyph-name="chevron" data-tags="chevron" d="M782.263 497.737l-438.857 438.857c-12.921 13.001-30.814 21.048-50.587 21.048-39.386 0-71.314-31.928-71.314-71.314 0-17.040 5.977-32.684 15.948-44.951l-0.103 0.131 393.874-393.509-388.023-388.754c-12.041-12.741-19.443-29.976-19.443-48.94 0-39.386 31.928-71.314 71.314-71.314 17.141 0 32.87 6.048 45.169 16.126l-0.126-0.1 442.514 442.514c12.401 13.078 20.028 30.791 20.028 50.286s-7.626 37.207-20.058 50.318l0.031-0.033z" />
<glyph unicode="&#xe904;" glyph-name="class" data-tags="class" d="M445.44 701.44c-7.769 3.933-13.002 11.858-13.002 21.004 0 12.96 10.506 23.467 23.467 23.467 8.593 0 16.107-4.619 20.196-11.509l0.060-0.108 2.133-2.133c2.93-3.873 4.693-8.771 4.693-14.080 0-12.96-10.506-23.467-23.467-23.467-5.309 0-10.207 1.763-14.139 4.736l0.059-0.043zM551.253 826.027c4.327-5.725 11.122-9.387 18.773-9.387 12.96 0 23.467 10.506 23.467 23.467 0 7.651-3.661 14.447-9.328 18.731l-0.059 0.043-2.133 2.133c-3.873 2.93-8.771 4.693-14.080 4.693-12.96 0-23.467-10.506-23.467-23.467 0-5.309 1.763-10.207 4.736-14.139l-0.043 0.059zM580.267 218.027c4.327-5.725 11.122-9.387 18.773-9.387 12.96 0 23.467 10.506 23.467 23.467 0 7.651-3.661 14.447-9.328 18.731l-0.059 0.043-8.96 8.96c-3.873 2.93-8.771 4.693-14.080 4.693-12.96 0-23.467-10.506-23.467-23.467 0-5.309 1.763-10.207 4.736-14.139l-0.043 0.059zM433.493 211.2c0.080-0.001 0.174-0.002 0.269-0.002 6.402 0 12.194 2.611 16.37 6.826l8.962 8.962c2.93 3.873 4.693 8.771 4.693 14.080 0 12.96-10.506 23.467-23.467 23.467-5.309 0-10.207-1.763-14.139-4.736l0.059 0.043-8.96-8.96c-4.026-4.206-6.504-9.921-6.504-16.216 0-12.847 10.323-23.282 23.127-23.464h0.017zM1008.64 64.853v-96.853c0-12.96-10.506-23.467-23.467-23.467v0h-940.373c-12.96 0-23.467 10.506-23.467 23.467v0 97.28c0 12.96 10.506 23.467 23.467 23.467v0h55.040v404.48h-55.040c-0.178-0.005-0.388-0.008-0.598-0.008-12.96 0-23.467 10.506-23.467 23.467 0 7.911 3.914 14.908 9.912 19.159l0.073 0.049 304.64 227.84c0 5.547 0 11.093 0 16.64 0.237 98.661 79.789 178.663 178.255 179.626l0.091 0.001c99.257-0.243 179.627-80.762 179.627-180.053 0 0 0 0 0-0.001v0c0-5.547 0-11.093 0-16.64l304.64-228.693c6.071-4.3 9.985-11.297 9.985-19.208 0-12.96-10.506-23.467-23.467-23.467-0.21 0-0.42 0.003-0.629 0.008l0.031-0.001h-54.613v-404.907h55.040c12.96 0 23.467-10.506 23.467-23.467v0zM535.467 790.187c24.747-42.667 49.92-88.747 42.667-128 42.364 22.955 70.65 67.078 70.65 117.808 0 72.494-57.762 131.496-129.773 133.494l-0.185 0.004c-9.373-4.415-16.613-12.071-20.384-21.49l-0.096-0.27c-7.253-23.893 14.507-62.293 35.413-99.84zM381.867 778.667c0.172-71.672 56.778-130.068 127.725-133.111l0.275-0.009c9.725 5.156 16.958 13.92 19.984 24.464l0.070 0.283c7.253 23.893-14.507 62.72-35.413 100.267s-49.92 88.32-42.667 128c-42.463-22.926-70.829-67.102-70.829-117.903 0-0.25 0.001-0.499 0.002-0.749v0.038zM114.347 539.733h800.427l-232.96 173.227c-27.017-67.092-91.451-113.643-166.792-113.92h-0.035c-75.376 0.277-139.809 46.828-166.396 112.711l-0.431 1.209zM738.987 411.733v-324.693h143.787v406.187h-736.427v-404.907h143.787v325.973c0 12.96 10.506 23.467 23.467 23.467v0h402.347c12.96 0 23.467-10.506 23.467-23.467v0zM537.6 388.267v-301.227h154.453v302.507zM336.213 388.267v-301.227h154.453v302.507zM960.853 40.533h-893.013v-50.347h893.44z" />
<glyph unicode="&#xe905;" glyph-name="close" data-tags="close" d="M18.383 941.485c24.777 24.777 64.948 24.777 89.725 0l897.246-897.246c24.777-24.777 24.777-64.948 0-89.725s-64.948-24.777-89.725 0l-897.246 897.246c-24.777 24.777-24.777 64.948 0 89.725zM1005.485 941.617c24.777-24.777 24.777-64.948 0-89.725l-897.246-897.246c-24.777-24.777-64.948-24.777-89.725 0s-24.777 64.948 0 89.725l897.246 897.246c24.777 24.777 64.948 24.777 89.725 0z" />
<glyph unicode="&#xe906;" glyph-name="community" data-tags="community" d="M1037.498-1.164c-4.387-5.413-11.035-8.844-18.484-8.844-0.047 0-0.094 0-0.141 0h-139.629c-13.044 0.087-23.585 10.681-23.585 23.738 0 3.186 0.628 6.226 1.766 9.002l-0.057-0.158 29.324 72.611c3.798 9.313 12.783 15.756 23.273 15.756 13.843 0 25.065-11.222 25.065-25.065 0-3.353-0.659-6.553-1.853-9.476l0.061 0.167-15.825-39.564h73.542l-2.793 13.033c-6.982 32.116-37.236 136.844-132.655 136.844h-40.96c-95.418 0-125.673-104.727-132.655-136.844l-2.793-13.033h72.611l-16.291 39.564c-1.078 2.618-1.703 5.658-1.703 8.844 0 13.151 10.661 23.812 23.812 23.812 9.965 0 18.501-6.122 22.052-14.81l0.057-0.159 29.324-72.611c1.081-2.618 1.709-5.658 1.709-8.844 0-13.057-10.541-23.651-23.577-23.738h-139.644c-0.028 0-0.061 0-0.093 0-13.11 0-23.738 10.628-23.738 23.738 0 1.815 0.204 3.581 0.589 5.279l-0.030-0.159 8.844 41.891c23.273 107.52 93.091 174.545 179.2 174.545h40.96c87.040 0 155.927-67.025 179.2-174.545l8.844-41.891c0.361-1.551 0.568-3.331 0.568-5.16 0-5.643-1.969-10.826-5.257-14.9l0.035 0.045zM429.615 588.567c-0.008 0.512-0.012 1.117-0.012 1.723 0 53.789 35.228 99.351 83.871 114.871l0.854 0.235c2.156 0.712 4.637 1.123 7.215 1.123s5.059-0.411 7.382-1.17l-0.168 0.047c51.092-14.938 87.778-61.366 87.778-116.364s-36.687-101.426-86.923-116.149l-0.855-0.215h-14.895c-49.251 15.902-84.251 61.342-84.251 114.957 0 0.331 0.001 0.661 0.004 0.992v-0.051zM476.16 588.567c-0.001-0.165-0.002-0.36-0.002-0.555 0-29.751 17.779-55.349 43.291-66.751l0.464-0.185c26.014 11.713 43.797 37.409 43.797 67.258s-17.784 55.546-43.334 67.071l-0.464 0.187c-25.218-11.885-42.36-37.094-42.36-66.307 0-0.253 0.001-0.505 0.004-0.757v0.038zM519.913 826.88c13.11 0 23.738 10.628 23.738 23.738v0 39.098c-2.258 10.947-11.818 19.060-23.273 19.060s-21.014-8.113-23.246-18.907l-0.027-0.154v-37.702c0-13.11 10.628-23.738 23.738-23.738v0zM741.935 402.385c-0.001 0.141-0.001 0.309-0.001 0.476 0 53.614 34.998 99.053 83.395 114.718l0.853 0.239c2.156 0.712 4.637 1.123 7.215 1.123s5.059-0.411 7.382-1.17l-0.168 0.047c51.092-14.938 87.778-61.366 87.778-116.364s-36.687-101.426-86.923-116.149l-0.855-0.215h-14.895c-49.021 16.039-83.807 61.365-83.807 114.816 0 0.871 0.009 1.741 0.028 2.608l-0.002-0.129zM788.48 402.385c-0.001-0.165-0.002-0.36-0.002-0.555 0-29.751 17.779-55.349 43.291-66.751l0.464-0.185c26.014 11.713 43.797 37.409 43.797 67.258s-17.784 55.546-43.334 67.071l-0.464 0.187c-25.218-11.885-42.36-37.094-42.36-66.307 0-0.253 0.001-0.505 0.004-0.757v0.038zM793.6 755.2c3.417-2.017 7.529-3.209 11.919-3.209 8.815 0 16.507 4.804 20.602 11.937l0.061 0.116 19.084 32.582c2.133 3.524 3.394 7.782 3.394 12.335 0 13.314-10.793 24.107-24.107 24.107-8.762 0-16.431-4.674-20.652-11.665l-0.061-0.108-19.084-32.582c-2.017-3.417-3.209-7.529-3.209-11.919 0-8.815 4.804-16.507 11.937-20.602l0.116-0.061zM970.007 542.022c1.469-0.323 3.157-0.509 4.887-0.509s3.418 0.185 5.044 0.537l-0.156-0.028 32.582 19.084c7.224 4.195 12.003 11.896 12.003 20.713 0 13.184-10.688 23.872-23.872 23.872-4.368 0-8.461-1.173-11.983-3.221l0.114 0.061-32.582-19.084c-10.434-2.779-17.996-12.143-17.996-23.273 0-13.281 10.766-24.046 24.046-24.046 2.151 0 4.235 0.282 6.219 0.812l-0.168-0.038zM117.295 402.385c-0.001 0.141-0.001 0.309-0.001 0.476 0 53.614 34.998 99.053 83.395 114.718l0.853 0.239c2.156 0.712 4.637 1.123 7.215 1.123s5.059-0.411 7.382-1.17l-0.168 0.047c51.092-14.938 87.778-61.366 87.778-116.364s-36.687-101.426-86.923-116.149l-0.855-0.215h-14.895c-49.021 16.039-83.807 61.365-83.807 114.816 0 0.871 0.009 1.741 0.028 2.608l-0.002-0.129zM163.84 402.385c-0.001-0.165-0.002-0.36-0.002-0.555 0-29.751 17.779-55.349 43.291-66.751l0.464-0.185c26.014 11.713 43.797 37.409 43.797 67.258s-17.784 55.546-43.334 67.071l-0.464 0.187c-25.218-11.885-42.36-37.094-42.36-66.307 0-0.253 0.001-0.505 0.004-0.757v0.038zM216.436 764.044c4.195-7.224 11.896-12.003 20.713-12.003 13.184 0 23.872 10.688 23.872 23.872 0 4.368-1.173 8.461-3.221 11.983l0.061-0.114-18.618 33.513c-4.195 7.224-11.896 12.003-20.713 12.003-13.184 0-23.872-10.688-23.872-23.872 0-4.368 1.173-8.461 3.221-11.983l-0.061 0.114zM30.255 562.036l32.582-19.084c3.408-1.987 7.502-3.16 11.869-3.16 13.184 0 23.872 10.688 23.872 23.872 0 8.817-4.78 16.517-11.889 20.652l-0.114 0.061-32.582 19.084c-3.408 1.987-7.502 3.16-11.869 3.16-13.184 0-23.872-10.688-23.872-23.872 0-8.817 4.78-16.517 11.889-20.652l0.114-0.061zM469.178 282.764c-3.608 8.847-12.144 14.969-22.109 14.969-13.151 0-23.812-10.661-23.812-23.812 0-3.186 0.626-6.225 1.761-9.003l-0.057 0.159 15.825-39.564h-23.738c-1.406 0.296-3.022 0.465-4.678 0.465-13.11 0-23.738-10.628-23.738-23.738s10.628-23.738 23.738-23.738c1.656 0 3.271 0.169 4.831 0.492l-0.154-0.027h57.251c13.044 0.087 23.585 10.681 23.585 23.738 0 3.186-0.628 6.226-1.766 9.002l0.057-0.158zM410.531 59.345c-23.273 107.52-93.091 174.545-179.2 174.545h-42.822c-87.040 0-155.927-67.025-179.2-174.545l-8.844-41.891c-0.355-1.539-0.559-3.306-0.559-5.12 0-13.11 10.628-23.738 23.738-23.738 0.033 0 0.066 0 0.098 0h139.631c13.044 0.087 23.585 10.681 23.585 23.738 0 3.186-0.628 6.226-1.766 9.002l0.057-0.158-30.255 74.007c-3.608 8.847-12.144 14.969-22.109 14.969-13.151 0-23.812-10.661-23.812-23.812 0-3.186 0.626-6.225 1.761-9.003l-0.057 0.159 15.825-39.564h-73.076l2.793 13.033c6.982 32.116 36.771 136.844 132.655 136.844h40.96c95.418 0 125.673-104.727 132.655-136.844l2.793-13.033h-74.007l15.825 38.633c1.078 2.618 1.703 5.658 1.703 8.844 0 13.151-10.661 23.812-23.812 23.812-9.965 0-18.501-6.122-22.052-14.81l-0.057-0.159-27.927-71.68c-1.081-2.618-1.709-5.658-1.709-8.844 0-13.057 10.541-23.651 23.577-23.738h139.644c0.028 0 0.061 0 0.093 0 13.11 0 23.738 10.628 23.738 23.738 0 1.815-0.204 3.581-0.589 5.279l0.030-0.159zM668.393 266.938c3.251-9.937 12.438-16.988 23.273-16.988 13.495 0 24.435 10.94 24.435 24.435 0 2.661-0.425 5.222-1.212 7.62l0.049-0.173c-29.789 89.833-93.091 139.636-169.891 139.636h-40.96c-78.196 0-139.636-51.665-169.891-139.636-0.824-2.309-1.3-4.972-1.3-7.747 0-10.411 6.702-19.257 16.027-22.458l0.167-0.050h7.447c8.762 1.805 15.666 8.244 18.111 16.589l0.042 0.168c13.649 59.039 63.374 103.241 124.227 108.416l0.515 0.035h40.96c61.368-5.21 111.092-49.412 124.558-107.509l0.184-0.942zM659.549 201.775c0 13.11-10.628 23.738-23.738 23.738h-30.255l15.825 39.564c1.078 2.618 1.703 5.658 1.703 8.844 0 13.151-10.661 23.812-23.812 23.812-9.965 0-18.501-6.122-22.052-14.81l-0.057-0.159-29.324-72.611c-1.081-2.618-1.709-5.658-1.709-8.844 0-13.057 10.541-23.651 23.577-23.738h65.637c13.11 0 23.738 10.628 23.738 23.738v0z" />
<glyph unicode="&#xe907;" glyph-name="dashboard" data-tags="dashboard" d="M512 66.133c-53.019 0-96 42.981-96 96s42.981 96 96 96c53.019 0 96-42.981 96-96v0c0-53.019-42.981-96-96-96v0zM512 194.133c-17.673 0-32-14.327-32-32s14.327-32 32-32c17.673 0 32 14.327 32 32v0c0 17.673-14.327 32-32 32v0zM512-61.867c-282.77 0-512 229.23-512 512s229.23 512 512 512c282.77 0 512-229.23 512-512v0c0-282.77-229.23-512-512-512v0zM512 898.133c-247.424 0-448-200.576-448-448s200.576-448 448-448c247.424 0 448 200.576 448 448v0c-1.452 246.409-201.421 445.629-447.977 445.867h-0.023zM864 416c-0.021 0-0.046 0-0.071 0-17.673 0-32 14.327-32 32 0 0.751 0.026 1.495 0.077 2.233l-0.006-0.1c0 176.731-143.269 320-320 320s-320-143.269-320-320v0c0-17.673-14.327-32-32-32s-32 14.327-32 32v0c0 212.077 171.923 384 384 384s384-171.923 384-384v0c0.045-0.638 0.071-1.383 0.071-2.133 0-17.673-14.327-32-32-32-0.025 0-0.050 0-0.075 0h0.004zM526.507 190.293h-7.253c-14.275 3.418-24.723 16.070-24.723 31.162 0 2.567 0.302 5.064 0.873 7.456l-0.044-0.218 94.72 411.307c3.802 13.733 16.189 23.647 30.891 23.647 17.673 0 32-14.327 32-32 0-2.177-0.217-4.304-0.632-6.359l0.034 0.205-94.72-411.307c-3.717-13.858-16.165-23.894-30.956-23.894-0.067 0-0.134 0-0.201 0.001h0.010z" />
<glyph unicode="&#xe908;" glyph-name="expand" data-tags="expand" d="M74.24 512.366h875.52c41.002 0 74.24-33.238 74.24-74.24v-0.731c0-41.002-33.238-74.24-74.24-74.24h-875.52c-41.002 0-74.24 33.238-74.24 74.24v0.731c0 41.002 33.238 74.24 74.24 74.24zM511.634 960h0.731c41.002 0 74.24-33.238 74.24-74.24v-875.52c0-41.002-33.238-74.24-74.24-74.24h-0.731c-41.002 0-74.24 33.238-74.24 74.24v875.52c0 41.002 33.238 74.24 74.24 74.24z" />
<glyph unicode="&#xe909;" glyph-name="grateful" data-tags="grateful" d="M771.868 485.547c-0.455 325.86-258.276 440.32-258.276 440.32s-240.299-109.454-252.132-439.41c-293.319-182.044-260.551-455.111-260.551-455.111 69.281-42.872 153.293-68.279 243.239-68.279 1.206 0 2.412 0.005 3.616 0.014l-0.185-0.001c98.273 0.843 189.629 29.729 266.663 79.031l-2.016-1.207 3.641 2.276 3.641-2.276c75.018-48.095 166.374-76.981 264.422-77.822l0.225-0.002c1.019-0.008 2.225-0.013 3.431-0.013 89.946 0 173.958 25.407 245.25 69.435l-2.011-1.156s32.54 272.156-258.958 454.201zM705.877 455.964c7.054-52.338-1.593-204.8-189.781-335.644-188.871 132.21-197.063 278.756-190.009 331.321 54.911 30.147 119.57 49.802 188.334 54.534l1.448 0.080c69.789-3.054 134.661-21.301 192.295-51.489l-2.514 1.199zM514.048 852.366c109.965-70.743 183.771-189.464 191.776-325.868l0.053-1.129c-50.824 28.645-111.581 45.52-176.28 45.52-0.907 0-1.813-0.003-2.718-0.010l0.139 0.001h-22.756c-0.562 0.003-1.226 0.005-1.891 0.005-63.697 0-123.574-16.357-175.659-45.1l1.877 0.95c21.618 195.47 133.348 291.271 185.458 325.632zM64.171 70.258c2.503 64.398 27.534 218.453 198.656 340.196 14.564-194.332 111.73-290.133 180.679-333.824-56.881-30.444-124.336-48.563-195.969-49.151l-0.184-0.001c-66.73 0.317-129.706 16.076-185.635 43.884l2.453-1.104zM783.929 27.477c-72.79 0.565-141.123 19.115-200.938 51.416l2.282-1.127c68.267 44.146 163.157 139.719 182.044 333.141 172.26-121.97 197.063-276.252 199.339-341.333-53.319-26.406-116.077-41.926-182.442-42.098h-0.057z" />
<glyph unicode="&#xe90a;" glyph-name="homework" data-tags="homework" d="M934.4 433.067h-750.933c-25.921 0-46.933-21.013-46.933-46.933v0-62.72c-0.136-0.778-0.213-1.673-0.213-2.587 0-8.719 7.068-15.787 15.787-15.787s15.787 7.068 15.787 15.787c0 0.914-0.078 1.809-0.227 2.68l0.013-0.093v62.72c0 8.719 7.068 15.787 15.787 15.787v0h46.933v-78.080c-0.136-0.778-0.213-1.673-0.213-2.587 0-8.719 7.068-15.787 15.787-15.787s15.787 7.068 15.787 15.787c0 0.914-0.078 1.809-0.227 2.68l0.013-0.093v78.080h406.613v-78.080c-0.136-0.778-0.213-1.673-0.213-2.587 0-8.719 7.068-15.787 15.787-15.787s15.787 7.068 15.787 15.787c0 0.914-0.078 1.809-0.227 2.68l0.013-0.093v78.080h156.587v-78.080c-0.136-0.778-0.213-1.673-0.213-2.587 0-8.719 7.068-15.787 15.787-15.787s15.787 7.068 15.787 15.787c0 0.914-0.078 1.809-0.227 2.68l0.013-0.093v78.080h46.933c8.719 0 15.787-7.068 15.787-15.787v0-108.8h-46.933c-8.719 0-15.787-7.068-15.787-15.787v0-140.8h-15.787c-7.536-1.286-13.2-7.768-13.2-15.573s5.664-14.287 13.107-15.56l0.093-0.013h46.933v-110.933c0-8.719-7.068-15.787-15.787-15.787v0h-484.267v78.933c0.136 0.778 0.213 1.673 0.213 2.587 0 8.719-7.068 15.787-15.787 15.787s-15.787-7.068-15.787-15.787c0-0.914 0.078-1.809 0.227-2.68l-0.013 0.093v-78.080h-31.147v78.080c0.136 0.778 0.213 1.673 0.213 2.587 0 8.719-7.068 15.787-15.787 15.787s-15.787-7.068-15.787-15.787c0-0.914 0.078-1.809 0.227-2.68l-0.013 0.093v-78.080h-31.573v78.080c0.136 0.778 0.213 1.673 0.213 2.587 0 8.719-7.068 15.787-15.787 15.787s-15.787-7.068-15.787-15.787c0-0.914 0.078-1.809 0.227-2.68l-0.013 0.093v-78.080h-140.8c-0.007 0-0.015 0-0.023 0-8.419 0-15.298 6.59-15.762 14.892l-0.002 0.041v63.147c-1.286 7.536-7.768 13.2-15.573 13.2s-14.287-5.664-15.56-13.107l-0.013-0.093v-63.147c0-25.921 21.013-46.933 46.933-46.933h782.080c25.921 0 46.933 21.013 46.933 46.933v0 110.080c0.002 0.128 0.003 0.279 0.003 0.43 0 16.966-13.754 30.72-30.72 30.72-0.151 0-0.302-0.001-0.452-0.003h0.023v125.44h31.147c0.008 0 0.017 0 0.027 0 16.966 0 30.72 13.754 30.72 30.72 0 0.45-0.010 0.898-0.029 1.344l0.002-0.064v108.8c0 25.921-21.013 46.933-46.933 46.933v0zM652.8 88.747c0.778-0.136 1.673-0.213 2.587-0.213 8.719 0 15.787 7.068 15.787 15.787s-7.068 15.787-15.787 15.787c-0.914 0-1.809-0.078-2.68-0.227l0.093 0.013h-170.667v125.44h218.88v-234.667c0.031-8.695 7.087-15.732 15.787-15.732 3.17 0 6.121 0.934 8.595 2.542l-0.061-0.037 38.4 25.6 38.4-25.6c2.412-1.571 5.364-2.505 8.533-2.505 8.699 0 15.755 7.037 15.787 15.729v234.67h15.787c0.778-0.136 1.673-0.213 2.587-0.213 8.719 0 15.787 7.068 15.787 15.787s-7.068 15.787-15.787 15.787c-0.914 0-1.809-0.078-2.68-0.227l0.093 0.013h-752.64c-0.254 0.005-0.555 0.008-0.855 0.008-25.685 0-46.507-20.822-46.507-46.507 0-0.153 0.001-0.305 0.002-0.458v0.023-93.867c0-25.921 21.013-46.933 46.933-46.933v0zM730.88 245.333h62.72v-205.227l-22.613 14.933c-2.459 1.657-5.487 2.645-8.747 2.645s-6.288-0.988-8.803-2.68l0.056 0.036-22.613-14.933zM230.4 245.333h218.88v-125.013h-218.88zM74.24 135.68v93.867c-0.004 0.129-0.006 0.281-0.006 0.433 0 8.483 6.877 15.36 15.36 15.36 0.152 0 0.304-0.002 0.455-0.007l-0.022 0.001h109.227v-125.013h-109.653c-0.129-0.004-0.281-0.006-0.433-0.006-8.483 0-15.36 6.877-15.36 15.36 0 0.152 0.002 0.304 0.007 0.455l-0.001-0.022zM371.2 214.187c-8.719 0-15.787-7.068-15.787-15.787v0-31.147c-0.136-0.778-0.213-1.673-0.213-2.587 0-8.719 7.068-15.787 15.787-15.787s15.787 7.068 15.787 15.787c0 0.914-0.078 1.809-0.227 2.68l0.013-0.093v31.147c0 8.719-7.068 15.787-15.787 15.787v0zM308.907 214.187c-8.719 0-15.787-7.068-15.787-15.787v0-31.147c-0.136-0.778-0.213-1.673-0.213-2.587 0-8.719 7.068-15.787 15.787-15.787s15.787 7.068 15.787 15.787c0 0.914-0.078 1.809-0.227 2.68l0.013-0.093v31.147c0 8.719-7.068 15.787-15.787 15.787v0zM705.707 852.053c-3.001 1.764-6.61 2.806-10.462 2.806-7.711 0-14.447-4.174-18.071-10.387l-0.054-0.099-9.387-16.213c-1.764-3.001-2.806-6.61-2.806-10.462 0-7.711 4.174-14.447 10.387-18.071l0.099-0.054c2.973-1.671 6.525-2.655 10.307-2.655 7.719 0 14.481 4.1 18.226 10.241l0.053 0.094 9.387 16.213c1.764 3.001 2.806 6.61 2.806 10.462 0 7.711-4.174 14.447-10.387 18.071l-0.099 0.054zM359.253 530.773c2.913-1.825 6.442-2.929 10.224-2.986h284.176c0.127-0.003 0.277-0.005 0.428-0.005 3.605 0 6.988 0.951 9.911 2.616l-0.099-0.052c55.059 28.368 92.312 84.372 93.438 149.182l0.002 0.151c-0.614 6.031-3.819 11.209-8.469 14.464l-0.065 0.043c-22.413 13.83-49.578 22.025-78.657 22.025-21.531 0-42.013-4.492-60.559-12.591l0.976 0.38-10.24-3.84v10.667c-6.752 49.575-36.381 91.044-77.721 113.948l-0.785 0.399c-2.443 1.141-5.304 1.807-8.32 1.807s-5.877-0.666-8.444-1.859l0.124 0.052c-42.555-23.504-72.418-65.498-78.851-114.853l-0.082-0.773v-10.667l-12.373 5.12c-18.91 6.819-40.733 10.864-63.47 11.093l-0.104 0.001c-0.957 0.026-2.083 0.040-3.213 0.040-26.654 0-51.405-8.147-71.899-22.086l0.445 0.286c-4.548-3.371-7.6-8.538-8.102-14.433l-0.005-0.074c0.674-64.304 37.349-119.886 90.798-147.612l0.935-0.441zM306.773 664.32l6.827 2.987c11.958 3.456 25.693 5.443 39.892 5.443 29.163 0 56.368-8.383 79.336-22.872l-0.615 0.362c2.927-1.767 6.462-2.813 10.242-2.813 11.075 0 20.053 8.978 20.053 20.053 0 0.089-0.001 0.177-0.002 0.266v-0.013c-0.126 2.292-0.198 4.975-0.198 7.675 0 40.746 16.365 77.669 42.881 104.555l-0.017-0.017 6.4 4.267 5.973-4.693c26.483-26.676 42.85-63.425 42.85-103.998 0-2.59-0.067-5.164-0.198-7.72l0.015 0.358c0.099-11 9.039-19.879 20.053-19.879 3.779 0 7.314 1.045 10.331 2.862l-0.090-0.050c22.643 14.698 50.334 23.437 80.067 23.437 13.71 0 26.986-1.858 39.589-5.336l-1.043 0.245 6.827-2.56v-7.253c-9.289-38.519-33.439-70.196-65.897-89.241l-0.663-0.359h-276.48c-31.686 18.715-55.017 48.72-64.628 84.354l-0.225 0.979zM511.573 960c-11.546 0-20.907-9.36-20.907-20.907v0-18.773c0-11.782 9.551-21.333 21.333-21.333s21.333 9.551 21.333 21.333v0 18.773c0 0.005 0 0.011 0 0.017 0 11.546-9.36 20.907-20.907 20.907-0.3 0-0.599-0.006-0.896-0.019l0.042 0.001zM356.693 828.16l-9.387 16.213c-3.653 6.413-10.443 10.667-18.227 10.667-0.042 0-0.084 0-0.126 0h0.006c-3.797-0.080-7.321-1.18-10.328-3.037l0.088 0.051c-6.312-3.678-10.486-10.414-10.486-18.125 0-3.852 1.042-7.461 2.859-10.561l-0.053 0.098 9.387-16.213c3.799-6.235 10.56-10.335 18.28-10.335 3.782 0 7.334 0.984 10.415 2.71l-0.108-0.055c6.312 3.678 10.486 10.414 10.486 18.125 0 3.852-1.042 7.461-2.859 10.561l0.053-0.098z" />
<glyph unicode="&#xe90b;" glyph-name="inspired" data-tags="inspired" d="M505.87 87.275h8.558c0.020 0 0.045 0 0.069 0 17.374 0 31.458 14.084 31.458 31.458 0 0.732-0.025 1.459-0.074 2.179l0.005-0.097-35.621 575.263-35.853-575.263c-0.044-0.623-0.069-1.349-0.069-2.082 0-17.374 14.084-31.458 31.458-31.458 0.024 0 0.048 0 0.073 0h-0.004zM782.977 205.936v0c3.799 5.137 6.080 11.597 6.080 18.59 0 4.93-1.134 9.595-3.155 13.749l0.082-0.187-216.273 457.99 157.752-481.352c4.179-12.803 16.012-21.89 29.968-21.89 10.482 0 19.767 5.127 25.483 13.009l0.063 0.091zM297.231 211.488l160.296 484.59-220.436-458.684c-1.985-4.007-3.147-8.725-3.147-13.714 0-7.437 2.581-14.271 6.896-19.656l-0.048 0.062 1.85-2.313c5.812-7.315 14.708-11.964 24.689-11.964 13.877 0 25.656 8.986 29.835 21.457l0.065 0.222zM617.129 763.62c0-14.308-11.599-25.906-25.906-25.906s-25.906 11.599-25.906 25.906c0 14.308 11.599 25.906 25.906 25.906s25.906-11.599 25.906-25.906zM537.097 780.505c0-14.308-11.599-25.906-25.906-25.906s-25.906 11.599-25.906 25.906c0 14.308 11.599 25.906 25.906 25.906s25.906-11.599 25.906-25.906zM457.296 766.395c0-14.308-11.599-25.906-25.906-25.906s-25.906 11.599-25.906 25.906c0 14.308 11.599 25.906 25.906 25.906s25.906-11.599 25.906-25.906zM512.116 952.367c-278.618 0-504.482-225.865-504.482-504.482s225.865-504.482 504.482-504.482c278.618 0 504.482 225.865 504.482 504.482v0c-0.394 278.459-226.023 504.088-504.444 504.482h-0.038zM512.116-14.731c-255.496 0-462.616 207.12-462.616 462.616s207.12 462.616 462.616 462.616c255.496 0 462.616-207.12 462.616-462.616v0c0-255.496-207.12-462.616-462.616-462.616v0z" />
<glyph unicode="&#xe90c;" glyph-name="lock" data-tags="lock" d="M733.108-51.105h-442.216c0 0 0 0 0 0-87.211 0-157.935 70.591-158.151 157.751v278.397c0 17.49 14.178 31.668 31.668 31.668s31.668-14.178 31.668-31.668v-278.376c0-52.365 42.45-94.815 94.815-94.815v0h442.216c52.365 0 94.815 42.45 94.815 94.815v0 278.376c0 17.49 14.178 31.668 31.668 31.668s31.668-14.178 31.668-31.668v-278.376c-0.216-87.181-70.94-157.772-158.151-157.772 0 0 0 0-0.001 0v0zM859.781 318.673c-17.385 0-31.479 14.093-31.479 31.479v0 104.296h-632.225v-104.296c0-17.49-14.178-31.668-31.668-31.668s-31.668 14.178-31.668 31.668v0 135.775c0 17.385 14.093 31.479 31.479 31.479v0h695.561c17.385 0 31.479-14.093 31.479-31.479v-135.775c0-17.385-14.093-31.479-31.479-31.479v0zM512 106.667c-69.75 0-126.293 56.543-126.293 126.293s56.543 126.293 126.293 126.293c69.75 0 126.293-56.543 126.293-126.293v0c0-69.75-56.543-126.293-126.293-126.293v0zM512 296.296c-34.98 0-63.336-28.357-63.336-63.336s28.357-63.336 63.336-63.336c34.98 0 63.336 28.357 63.336 63.336v0c0 34.98-28.357 63.336-63.336 63.336v0zM764.966 580.741c-17.385 0-31.479 14.093-31.479 31.479v0 63.336c0 122.219-99.078 221.298-221.298 221.298s-221.298-99.078-221.298-221.298v-62.957c0-17.49-14.178-31.668-31.668-31.668s-31.668 14.178-31.668 31.668v62.957c0 157.094 127.35 284.444 284.444 284.444s284.444-127.35 284.444-284.444v-62.957c0.001-0.113 0.002-0.246 0.002-0.379 0-17.385-14.093-31.479-31.479-31.479-0.001 0-0.002 0-0.002 0v0z" />
<glyph unicode="&#xe90d;" glyph-name="menu" data-tags="menu" d="M77.967 665.016h868.055c39.905 0 72.335 32.41 72.335 72.335 0 39.936-32.43 72.335-72.335 72.335h-868.055c-39.936 0-72.335-32.41-72.335-72.335s32.399-72.335 72.335-72.335zM946.033 520.335h-868.055c-39.936 0-72.335-32.41-72.335-72.335 0-39.916 32.41-72.325 72.335-72.325h868.055c39.905 0 72.335 32.41 72.335 72.325 0 39.926-32.43 72.335-72.335 72.335zM946.033 230.994h-868.055c-39.936 0-72.335-32.43-72.335-72.346 0-39.895 32.41-72.325 72.335-72.325h868.055c39.905 0 72.335 32.43 72.335 72.325 0 39.916-32.43 72.346-72.335 72.346z" />
<glyph unicode="&#xe90e;" glyph-name="minus" data-tags="minus" d="M10.24 519.68h1003.52v-153.6h-1003.52v153.6z" />
<glyph unicode="&#xe90f;" glyph-name="reply" data-tags="reply" d="M1024 290.847c0-62.556-23.941-147.558-71.803-254.986-1.116-2.632-3.103-7.148-5.939-13.558-2.816-6.41-5.376-12.063-7.619-16.968-2.284-4.895-4.721-9.032-7.363-12.421-4.536-6.41-9.8-9.605-15.841-9.605-5.642 0-10.076 1.884-13.281 5.642-3.205 3.789-4.803 8.479-4.803 14.141 0 3.389 0.481 8.376 1.423 14.981s1.423 11.018 1.423 13.281c1.864 25.631 2.796 48.835 2.796 69.55 0 38.052-3.277 72.192-9.882 102.328-6.605 30.147-15.739 56.248-27.423 78.305-11.704 22.036-26.757 41.083-45.22 57.078-18.483 16.026-38.359 29.123-59.658 39.311-21.299 10.168-46.356 18.176-75.203 24.033-28.815 5.816-57.836 9.882-87.060 12.155-29.204 2.263-62.28 3.389-99.205 3.389h-126.638v-144.742c0-9.789-3.584-18.268-10.742-25.436-7.168-7.148-15.636-10.732-25.436-10.732-9.81 0-18.289 3.584-25.436 10.732l-289.464 289.638c-7.168 7.158-10.742 15.647-10.742 25.436 0 9.8 3.584 18.289 10.742 25.436l289.464 289.475c7.158 7.158 15.636 10.742 25.436 10.742s18.278-3.584 25.436-10.742c7.168-7.168 10.742-15.647 10.742-25.446v-144.732h126.638c268.728 0 433.613-75.94 494.694-227.84 19.978-50.688 29.962-113.428 29.962-188.447z" />
<glyph unicode="&#xe910;" glyph-name="review" data-tags="review" horiz-adv-x="1032" d="M1001.636 275.756c-16.864 0-30.535 13.671-30.535 30.535v0c0 63.22-141.063 307.501-455.446 307.501s-455.016-246.861-455.016-309.651c-1.87-15.235-14.731-26.918-30.32-26.918s-28.45 11.682-30.305 26.77l-0.015 0.148c0 106.658 181.060 368.141 516.086 368.141s516.086-261.483 516.086-368.141c-1.157-15.913-14.352-28.385-30.459-28.385-0.027 0-0.053 0-0.080 0h0.004zM516.086-64.43c-335.026 0-516.086 261.483-516.086 368.141-0.137 1.086-0.215 2.343-0.215 3.617 0 16.864 13.671 30.535 30.535 30.535s30.535-13.671 30.535-30.535c0-1.275-0.078-2.531-0.23-3.765l0.015 0.148c0-63.22 141.063-307.501 455.446-307.501s455.446 244.281 455.446 307.501c-0.137 1.086-0.215 2.343-0.215 3.617 0 16.864 13.671 30.535 30.535 30.535s30.535-13.671 30.535-30.535c0-1.275-0.078-2.531-0.23-3.765l0.015 0.148c0-106.658-181.060-368.141-516.086-368.141zM516.086 103.728c-109.973 0-199.123 89.15-199.123 199.123s89.15 199.123 199.123 199.123c109.973 0 199.123-89.15 199.123-199.123v0c-0.244-109.874-89.249-198.879-199.099-199.123h-0.024zM516.086 441.764c-76.482 0-138.483-62.001-138.483-138.483s62.001-138.483 138.483-138.483c76.482 0 138.483 62.001 138.483 138.483v0c0 0.128 0.001 0.279 0.001 0.431 0 76.569-61.949 138.668-138.46 138.912h-0.024zM576.726 304.141c0-33.491-27.149-60.64-60.64-60.64s-60.64 27.149-60.64 60.64c0 33.491 27.149 60.64 60.64 60.64s60.64-27.149 60.64-60.64zM516.086 758.727c12.351 0 22.364 10.013 22.364 22.364v0 156.546c-2.76 9.442-11.34 16.221-21.504 16.221s-18.743-6.78-21.464-16.063l-0.040-0.158v-156.546c0-12.351 10.013-22.364 22.364-22.364v0zM849.821 666.691c4.035-3.978 9.579-6.435 15.698-6.435s11.662 2.457 15.7 6.438l110.525 110.525c2.964 3.759 4.755 8.563 4.755 13.786 0 12.351-10.013 22.364-22.364 22.364-5.223 0-10.028-1.79-13.834-4.791l0.048 0.036-110.528-110.528c-3.978-4.035-6.435-9.579-6.435-15.698s2.457-11.662 6.438-15.7l-0.003 0.003zM40.427 809.045c-3.978-4.035-6.435-9.579-6.435-15.698s2.457-11.662 6.438-15.7l-0.003 0.003 110.528-110.958c3.759-2.964 8.563-4.755 13.786-4.755 12.351 0 22.364 10.013 22.364 22.364 0 5.223-1.79 10.028-4.791 13.834l0.036-0.048-110.528 110.958c-4.035 3.978-9.579 6.435-15.698 6.435s-11.662-2.457-15.7-6.438l0.003 0.003z" />
<glyph unicode="&#xe911;" glyph-name="script" data-tags="script" d="M864.183-64h-704c-16.238 1.789-28.757 15.433-28.757 32s12.519 30.211 28.612 31.987l0.145 0.013h704c0 0 0 0 0.001 0 52.992 0 95.974 42.854 96.182 95.797v0.020c1.789 16.238 15.433 28.757 32 28.757s30.211-12.519 31.987-28.612l0.013-0.145c-0.208-88.309-71.844-159.817-160.182-159.817 0 0 0 0 0 0v0zM1024 95.817h-64v768c-0.204 17.489-14.328 31.613-31.798 31.817h-576.019c-17.616-0.207-31.817-14.535-31.817-32.181 0-0.001 0-0.001 0-0.002v0-768h-64.366v768c0 0.109-0.001 0.237-0.001 0.366 0 53.12 43.063 96.183 96.183 96.183 0 0 0 0 0.001 0h576c52.963-0.208 95.817-43.19 95.817-96.182 0 0 0-0.001 0-0.001v0zM160.183-64c0 0 0 0 0 0-88.338 0-159.974 71.508-160.182 159.797v0.020c1.789 16.238 15.433 28.757 32 28.757s30.211-12.519 31.987-28.612l0.013-0.145c3.214-50.507 44.965-90.255 96-90.255s92.786 39.748 95.986 89.975l0.014 0.28c1.789 16.238 15.433 28.757 32 28.757s30.211-12.519 31.987-28.612l0.013-0.145c-0.208-88.181-71.636-159.61-159.797-159.817h-0.020zM64 95.817h-64v448c0 53.12 43.063 96.183 96.183 96.183v0h207.726v-64h-207.726c-17.616-0.207-31.817-14.535-31.817-32.181 0-0.001 0-0.001 0-0.002v0zM864.183 479.817h-448c-16.238 1.789-28.757 15.433-28.757 32s12.519 30.211 28.612 31.987l0.145 0.013h448c16.238-1.789 28.757-15.433 28.757-32s-12.519-30.211-28.612-31.987l-0.145-0.013zM640 607.817h-223.817c-16.238 1.789-28.757 15.433-28.757 32s12.519 30.211 28.612 31.987l0.145 0.013h223.817c16.238-1.789 28.757-15.433 28.757-32s-12.519-30.211-28.612-31.987l-0.145-0.013zM864.183 351.817h-448c-16.238 1.789-28.757 15.433-28.757 32s12.519 30.211 28.612 31.987l0.145 0.013h448c16.238-1.789 28.757-15.433 28.757-32s-12.519-30.211-28.612-31.987l-0.145-0.013zM864.183 223.817h-448c-16.238 1.789-28.757 15.433-28.757 32s12.519 30.211 28.612 31.987l0.145 0.013h448c16.238-1.789 28.757-15.433 28.757-32s-12.519-30.211-28.612-31.987l-0.145-0.013z" />
<glyph unicode="&#xe912;" glyph-name="understood" data-tags="understood" d="M910.247 701.329c-79.917 153.377-256 265.35-430.303 258.226-91.251-4.659-174.341-36.107-242.516-86.558l1.208 0.854c-39.518-28.769-73.101-62.706-100.6-101.28l-0.909-1.342c-51.186-71.403-81.85-160.538-81.85-256.835 0-91.315 27.573-176.189 74.848-246.751l-1.012 1.604c53.529-77.033 126.67-137.004 212.276-173.316l3.209-1.209c42.353-16.976 91.45-26.822 142.847-26.822 62.553 0 121.7 14.585 174.225 40.54l-2.303-1.029c28.242 13.131 51.813 26.193 74.389 40.671l-2.487-1.492c101.152 69.711 167.089 184.233 168.957 314.26l0.003 0.286c0.015 1.245 0.023 2.715 0.023 4.187 0 36.869-5.211 72.521-14.937 106.259l0.667-2.703c-35.563 123.652-126.818 220.62-244.137 263.365l-2.736 0.871c-36.235 12.396-77.981 19.551-121.399 19.551-88.708 0-170.439-29.872-235.683-80.104l0.908 0.671c-87.841-70.217-143.623-177.359-143.623-297.53 0-12.261 0.581-24.387 1.716-36.351l-0.117 1.527c15.382-129.985 95.54-238.292 206.829-292.868l2.201-0.975q10.463-4.897 22.261-9.127c81.92-31.833 190.998-34.282 268.911 11.353 70.863 41.34 121.671 110.476 137.721 192.082l0.297 1.81c2.244 12.809 3.527 27.558 3.527 42.606 0 86.253-42.143 162.662-106.961 209.761l-0.747 0.517c-36.876 24.966-82.347 39.856-131.295 39.856-52.231 0-100.503-16.954-139.611-45.66l0.659 0.461c-49.985-40.108-81.712-101.192-81.712-169.686 0-32.495 7.141-63.322 19.939-90.997l-0.558 1.344c33.815-66.923 102.037-112.010 180.789-112.010 42.001 0 81.006 12.824 113.314 34.771l-0.705-0.452c37.183 24.506 64.178 61.877 74.774 105.652l0.245 1.2c2.052 8.918 3.228 19.159 3.228 29.674 0 36.297-14.011 69.321-36.92 93.959l0.078-0.085c13.531-22.498 21.535-49.653 21.535-78.678 0-39.522-14.841-75.578-39.253-102.898l0.132 0.15c-29.255-30.191-70.176-48.93-115.474-48.93-23.551 0-45.92 5.066-66.075 14.167l1.013-0.409c-56.2 27.857-94.156 84.829-94.156 150.666 0 2.989 0.078 5.961 0.233 8.911l-0.017-0.413c5.878 67.977 49.784 124.402 110.119 148.289l1.186 0.414c18.485 6.866 39.839 10.84 62.121 10.84 46.811 0 89.527-17.535 121.937-46.395l-0.184 0.161c30.74-29.342 53.118-67.194 63.356-109.774l0.311-1.53c5.374-18.832 8.464-40.461 8.464-62.811 0-25.918-4.155-50.865-11.835-74.212l0.478 1.677c-20.299-55.058-59.719-99.028-110.024-124.735l-1.28-0.594c-36.836-18.444-80.256-29.241-126.199-29.241-14.537 0-28.822 1.081-42.778 3.167l1.575-0.193c-117.425 17.434-213.977 92.886-260.699 195.768l-0.866 2.131c-17.294 39.758-27.356 86.072-27.356 134.737 0 71.317 21.609 137.587 58.636 192.62l-0.783-1.235c64.415 91.342 169.484 150.274 288.318 150.274 1.082 0 2.163-0.005 3.242-0.015l-0.165 0.001c119.802-3.236 224.56-64.815 287.253-157.242l0.803-1.255c36.577-56.501 58.321-125.565 58.321-199.708 0-50.639-10.143-98.91-28.509-142.89l0.908 2.452c-20.402-46.353-48.586-85.733-83.282-118.246l-0.196-0.182c-68.128-64.392-160.292-103.978-261.702-103.978-82.077 0-158.098 25.931-220.317 70.048l1.184-0.797c-102.837 72.855-169.148 191.386-169.148 325.405 0 95.377 33.585 182.91 89.573 251.418l-0.564-0.712c75.196 89.444 187.144 145.894 312.276 145.894 10.984 0 21.866-0.435 32.63-1.288l-1.421 0.091c134.59-12.817 249.332-87.76 316.414-195.463l1.026-1.768c37.719-62.585 60.033-138.148 60.033-218.923 0-55.444-10.513-108.433-29.655-157.082l1.010 2.912c-19.756-51.068-48.483-94.671-84.601-130.903l0.009 0.009c-34.55-33.775-75.472-61.205-120.77-80.296l-2.555-0.956c-40.070-16.25-86.595-22.261-118.873-54.317-10.585-9.59-18.381-22.076-22.143-36.208l-0.118-0.522c-0.249-2.019-0.391-4.355-0.391-6.725 0-32.088 26.013-58.101 58.101-58.101 23.989 0 44.583 14.539 53.45 35.285l0.144 0.379c1.455 4.211 2.296 9.063 2.296 14.112 0 6.751-1.503 13.151-4.192 18.884l0.115-0.273c-4.995 10.090-15.142 16.948-26.91 17.141h-0.026c6.405-3.429 10.688-10.075 10.688-17.721 0-0.109-0.001-0.218-0.003-0.327v0.016c-0.334-7.748-5.509-14.203-12.561-16.438l-0.128-0.035c-0.681-0.074-1.472-0.116-2.272-0.116-11.078 0-20.266 8.092-21.976 18.688l-0.017 0.128c-0.019 0.429-0.029 0.931-0.029 1.437 0 11.752 5.763 22.157 14.618 28.544l0.104 0.071c8.895 6.331 19.14 11.614 30.107 15.336l0.836 0.246c26.349 10.542 48.319 21.299 69.39 33.441l-2.607-1.385c123.331 66.35 212.934 181.863 243.173 319.615l0.583 3.168c4.67 24.148 7.342 51.92 7.342 80.315 0 74.609-18.444 144.91-51.022 206.593l1.162-2.414zM673.169 502.094c0-7.5-6.080-13.579-13.579-13.579s-13.579 6.080-13.579 13.579c0 7.5 6.080 13.579 13.579 13.579s13.579-6.080 13.579-13.579zM641.781 526.358c0-6.762-5.482-12.243-12.243-12.243s-12.243 5.482-12.243 12.243c0 6.762 5.482 12.243 12.243 12.243s12.243-5.482 12.243-12.243zM608.167 543.722c0-5.901-4.784-10.685-10.685-10.685s-10.685 4.784-10.685 10.685c0 5.901 4.784 10.685 10.685 10.685s10.685-4.784 10.685-10.685zM572.327 551.068c0-5.901-4.784-10.685-10.685-10.685s-10.685 4.784-10.685 10.685c0 5.901 4.784 10.685 10.685 10.685s10.685-4.784 10.685-10.685zM537.377 551.068c0-5.901-4.784-10.685-10.685-10.685s-10.685 4.784-10.685 10.685c0 5.901 4.784 10.685 10.685 10.685s10.685-4.784 10.685-10.685zM516.897 21.482c0-15.122-12.259-27.381-27.381-27.381s-27.381 12.259-27.381 27.381c0 15.122 12.259 27.381 27.381 27.381s27.381-12.259 27.381-27.381zM450.56 28.383c0-12.417-10.066-22.483-22.483-22.483s-22.483 10.066-22.483 22.483c0 12.417 10.066 22.483 22.483 22.483s22.483-10.066 22.483-22.483zM386.894 45.301c0-9.221-7.475-16.696-16.696-16.696s-16.696 7.475-16.696 16.696c0 9.221 7.475 16.696 16.696 16.696s16.696-7.475 16.696-16.696z" />
<glyph unicode="&#xe913;" glyph-name="volume" data-tags="volume" d="M595.017 920.869c-4.418 2.248-9.634 3.564-15.158 3.564-8.144 0-15.62-2.862-21.475-7.636l0.062 0.049-331.703-266.606h-158.354c-37.77 0-68.389-30.619-68.389-68.389v0-273.189c0.208-37.612 30.746-68.023 68.388-68.023 0 0 0.001 0 0.001 0h158.354l332.069-265.509c5.822-4.807 13.36-7.723 21.58-7.723 18.784 0 34.011 15.227 34.011 34.011 0 0.144-0.001 0.287-0.003 0.43v-0.022 887.223c0.007 0.261 0.011 0.569 0.011 0.877 0 13.535-7.822 25.243-19.193 30.85l-0.201 0.090zM204.8 309.029h-136.411v272.823h136.411zM546.011 72.777l-273.189 219.429v307.566l273.189 219.429zM787.383 686.811c-6.159 6.069-14.619 9.816-23.954 9.816-18.853 0-34.136-15.283-34.136-34.136 0-9.517 3.895-18.125 10.178-24.316l0.004-0.004c49.459-49.331 80.059-117.549 80.059-192.914s-30.6-143.584-80.053-192.909l-0.006-0.006c-6.287-6.195-10.182-14.803-10.182-24.32 0-18.853 15.283-34.136 34.136-34.136 9.335 0 17.796 3.747 23.958 9.82l-0.004-0.004c61.894 61.716 100.189 147.072 100.189 241.371s-38.295 179.655-100.181 241.363l-0.008 0.008zM883.566 782.994c-6.159 6.069-14.619 9.816-23.954 9.816-18.853 0-34.136-15.283-34.136-34.136 0-9.517 3.895-18.125 10.178-24.316l0.004-0.004c74.335-73.826 120.348-176.088 120.348-289.097s-46.012-215.271-120.325-289.074l-0.023-0.023c-6.287-6.195-10.182-14.803-10.182-24.32 0-18.853 15.283-34.136 34.136-34.136 9.335 0 17.796 3.747 23.958 9.82l-0.004-0.004c86.86 86.171 140.631 205.583 140.631 337.554s-53.771 251.384-140.6 337.523l-0.031 0.031z" />
</font>
</defs>
</svg>
